<?xml version="1.0" encoding="UTF-8"?>
<svg version="1.1" xmlns="http://www.w3.org/2000/svg" width="500" height="500">
<path d="M0 0 C165 0 330 0 500 0 C500 165 500 330 500 500 C335 500 170 500 0 500 C0 335 0 170 0 0 Z " fill="#FEFEFE" transform="translate(0,0)"/>
<path d="M0 0 C1.67542976 0.28604898 3.34385343 0.61781233 5 1 C5 4.3 5 7.6 5 11 C6.30819702 10.95286865 6.30819702 10.95286865 7.64282227 10.90478516 C10.90641423 10.80197778 14.16826524 10.72705439 17.43286133 10.67041016 C18.84036556 10.64039803 20.24768527 10.59957242 21.65454102 10.54736328 C34.84927521 10.07027612 34.84927521 10.07027612 39.40234375 13.8984375 C42.72294858 17.42875909 43.131546 19.82192179 43.17700195 24.63964844 C43.19625481 26.4122403 43.19625481 26.4122403 43.21589661 28.22064209 C43.22328354 29.50392395 43.23067047 30.78720581 43.23828125 32.109375 C43.246353 33.42407776 43.25442474 34.73878052 43.26274109 36.09332275 C43.27777034 38.88089876 43.28760645 41.66844927 43.29516602 44.45605469 C43.30621295 48.01823628 43.34059129 51.57979016 43.38033772 55.14175034 C43.41285342 58.54759969 43.41728747 61.95338244 43.42578125 65.359375 C43.44328934 66.63455994 43.46079742 67.90974487 43.47883606 69.22357178 C43.451734 80.28774358 43.451734 80.28774358 39 85 C34.62467651 88.09411603 31.29702623 88.14573578 26.17236328 87.90820312 C18.79313923 87.45554102 18.79313923 87.45554102 12.32373047 90.39208984 C9.9761152 93.33835938 8.37975705 96.47739572 6.7890625 99.875 C5 103 5 103 2.2734375 103.9375 C1.52320313 103.958125 0.77296875 103.97875 0 104 C-0.50144531 102.92878906 -1.00289063 101.85757813 -1.51953125 100.75390625 C-5.38248252 92.98550383 -5.38248252 92.98550383 -12.22558594 88.25585938 C-16.36626195 87.68507695 -20.3523794 87.84329312 -24.51171875 88.08203125 C-29.51245667 88.24854575 -32.02752418 87.05306004 -36 84 C-40.15188283 78.20321557 -39.48546986 71.58857834 -39.50390625 64.75390625 C-39.51389145 63.469431 -39.52387665 62.18495575 -39.53416443 60.86155701 C-39.55207036 58.14908277 -39.55769109 55.43689435 -39.5559082 52.72436523 C-39.55560326 49.26280965 -39.5965884 45.80309927 -39.64822483 42.34198093 C-39.68976239 39.02093047 -39.68785438 35.70021278 -39.69140625 32.37890625 C-39.7129628 31.1433046 -39.73451935 29.90770294 -39.75672913 28.63465881 C-39.68046888 19.03938951 -39.68046888 19.03938951 -36.08178711 14.72631836 C-32.22742389 10.94555032 -29.61992831 10.8797482 -24.2421875 10.90234375 C-23.24761032 10.90446617 -23.24761032 10.90446617 -22.23294067 10.90663147 C-20.11358137 10.91223246 -17.99432741 10.924785 -15.875 10.9375 C-14.43880361 10.94251488 -13.00260556 10.94707781 -11.56640625 10.95117188 C-8.04423655 10.96220218 -4.52212855 10.97946741 -1 11 C-1.01160156 10.28972656 -1.02320313 9.57945312 -1.03515625 8.84765625 C-1.04417969 7.92855469 -1.05320312 7.00945312 -1.0625 6.0625 C-1.07410156 5.14597656 -1.08570313 4.22945312 -1.09765625 3.28515625 C-1 1 -1 1 0 0 Z " fill="#0EB3FC" transform="translate(279,153)"/>
<path d="M0 0 C1.16163162 -0.01606293 2.32326324 -0.03212585 3.52009583 -0.04867554 C8.82769233 -0.09313899 14.13514172 -0.1346191 19.44287109 -0.15722656 C22.24333392 -0.17056133 25.04306727 -0.19840769 27.84326172 -0.23925781 C31.87960048 -0.29813227 35.91515849 -0.31589436 39.9519043 -0.33056641 C41.2020784 -0.35323578 42.4522525 -0.37590515 43.74031067 -0.39926147 C53.43672889 -0.37566364 53.43672889 -0.37566364 57.13867188 2.16186523 C60.13985991 6.2967836 60.11208281 9.22435932 59.92456055 14.21240234 C59.91851807 14.97403687 59.91247559 15.73567139 59.90625 16.52038574 C59.87499783 19.34927031 59.79122773 22.1773785 59.71362305 25.00537109 C59.52799805 34.50318359 59.52799805 34.50318359 59.33862305 44.19287109 C35.57862305 44.19287109 11.81862305 44.19287109 -12.66137695 44.19287109 C-12.74387695 37.84037109 -12.82637695 31.48787109 -12.91137695 24.94287109 C-12.94779297 22.94321289 -12.98420898 20.94355469 -13.02172852 18.88330078 C-13.03341375 17.29379347 -13.04360597 15.70427418 -13.05200195 14.11474609 C-13.07246582 13.29312988 -13.09292969 12.47151367 -13.11401367 11.625 C-13.11756436 5.81251959 -13.11756436 5.81251959 -10.82446289 2.69775391 C-7.22510719 0.19364233 -4.26941273 0.05365257 0 0 Z " fill="#FDFEFE" transform="translate(257.661376953125,168.80712890625)"/>
<path d="M0 0 C23.76 0 47.52 0 72 0 C72 11.42307692 72 11.42307692 69 15 C66.5658714 16.2170643 65.23199841 16.01286865 62.52734375 15.859375 C52.90525872 15.18860703 52.90525872 15.18860703 44.16308594 18.31884766 C41.71989313 21.01697532 40.05016996 23.95069922 38.42578125 27.19140625 C37.95527344 28.11824219 37.48476563 29.04507813 37 30 C36.34 30 35.68 30 35 30 C33.5765578 28.0700569 32.23440799 26.0796509 30.9375 24.0625 C28.70667733 20.34860293 28.70667733 20.34860293 26 17 C24.48624956 16.87928863 22.96744975 16.82046722 21.44921875 16.7890625 C20.52302734 16.76070312 19.59683594 16.73234375 18.64257812 16.703125 C16.68442865 16.65135634 14.72606833 16.60699325 12.76757812 16.5703125 C11.83751953 16.539375 10.90746094 16.5084375 9.94921875 16.4765625 C9.09674561 16.45674316 8.24427246 16.43692383 7.3659668 16.41650391 C4.49277698 15.91070865 3.10850246 14.9936961 1 13 C0 10 0 10 0 0 Z " fill="#FDFEFE" transform="translate(245,219)"/>
<path d="M0 0 C1.32 0 2.64 0 4 0 C5.32 5.28 6.64 10.56 8 16 C9.7149101 12.5701798 10.94130926 9.37998493 12.125 5.75 C12.47820312 4.67234375 12.83140625 3.5946875 13.1953125 2.484375 C13.46085937 1.66453125 13.72640625 0.8446875 14 0 C15.65 0 17.3 0 19 0 C20.65 5.28 22.3 10.56 24 16 C24.33 16 24.66 16 25 16 C26.32 10.72 27.64 5.44 29 0 C30.32 0 31.64 0 33 0 C31.56933303 8.1698614 29.35862583 16.05394988 27 24 C25.35 24 23.7 24 22 24 C20.35 19.05 18.7 14.1 17 9 C14.36404228 11.63595772 13.92297888 14.06187181 12.875 17.625 C12.52179688 18.81351562 12.16859375 20.00203125 11.8046875 21.2265625 C11.53914063 22.14179688 11.27359375 23.05703125 11 24 C9.35 24 7.7 24 6 24 C5.73445313 23.05898438 5.46890625 22.11796875 5.1953125 21.1484375 C4.84210938 19.90320313 4.48890625 18.65796875 4.125 17.375 C3.77695312 16.14523437 3.42890625 14.91546875 3.0703125 13.6484375 C2.39429338 11.34405114 1.66616651 9.05375473 0.8671875 6.7890625 C0 4 0 4 0 0 Z " fill="#181818" transform="translate(277,268)"/>
<path d="M0 0 C2.73828125 1.37890625 2.73828125 1.37890625 5 4 C5.61795159 7.43488239 5.47070451 10.77436854 5.3125 14.25 C5.28994141 15.18585938 5.26738281 16.12171875 5.24414062 17.0859375 C5.18530595 19.39225674 5.10317146 21.69530838 5 24 C4.01 24 3.02 24 2 24 C2 23.01 2 22.02 2 21 C1.525625 21.495 1.05125 21.99 0.5625 22.5 C-3.10560943 24.64718601 -6.83575725 24.78223344 -11 24 C-13.80395944 21.89859863 -13.97370356 21.18078803 -14.5 17.5625 C-14 14 -14 14 -12.125 11.5625 C-7.72890579 9.3644529 -3.82520752 9.66270394 1 10 C0.34 8.02 -0.32 6.04 -1 4 C-4.5219721 3.91995518 -7.61981469 3.95994298 -11 5 C-11 3.68 -11 2.36 -11 1 C-7.35001694 -0.21666102 -3.78201543 -0.75501773 0 0 Z " fill="#131313" transform="translate(349,268)"/>
<path d="M0 0 C3.5542299 0.64622362 5.59136218 1.42940796 8.4375 3.625 C10.4375 6.625 10.4375 6.625 10.4375 13.625 C5.1575 13.625 -0.1225 13.625 -5.5625 13.625 C-4.9025 15.935 -4.2425 18.245 -3.5625 20.625 C0.7275 20.625 5.0175 20.625 9.4375 20.625 C9.4375 21.615 9.4375 22.605 9.4375 23.625 C5.48102612 25.60323694 0.7392582 25.18987734 -3.5625 24.625 C-7.44809672 21.74965842 -9.13513207 19.41641586 -9.87109375 14.609375 C-10.13089222 10.10620151 -9.79169989 7.20804427 -7 3.5625 C-4.49061037 1.01168176 -3.68923851 0.64723483 0 0 Z " fill="#0C0C0C" transform="translate(263.5625,267.375)"/>
<path d="M0 0 C2.1640625 0.59765625 2.1640625 0.59765625 4.7265625 2.72265625 C6.1640625 5.59765625 6.1640625 5.59765625 6.1640625 12.59765625 C0.8840625 12.59765625 -4.3959375 12.59765625 -9.8359375 12.59765625 C-8.18515848 16.34936049 -8.18515848 16.34936049 -5.8359375 19.59765625 C-3.98306248 19.66992127 -2.12759872 19.68146845 -0.2734375 19.66015625 C0.73847656 19.65113281 1.75039062 19.64210938 2.79296875 19.6328125 C3.57542969 19.62121094 4.35789063 19.60960937 5.1640625 19.59765625 C5.1640625 20.58765625 5.1640625 21.57765625 5.1640625 22.59765625 C1.20758862 24.57589319 -3.5341793 24.16253359 -7.8359375 23.59765625 C-11.24905417 21.07194992 -12.50231518 19.59852321 -13.8359375 15.59765625 C-14.33747952 9.47884365 -13.91382455 6.49112071 -9.8359375 1.59765625 C-6.08425266 -0.90346698 -4.31588971 -0.61153486 0 0 Z " fill="#0D0D0D" transform="translate(190.8359375,268.40234375)"/>
<path d="M0 0 C1.32 0 2.64 0 4 0 C4.33 0.66 4.66 1.32 5 2 C5.99 1.34 6.98 0.68 8 0 C14.93146853 -0.66013986 14.93146853 -0.66013986 18.23828125 1.3828125 C20.98808177 5.46788201 20.42477612 9.45037892 20.25 14.25 C20.23195312 15.18585938 20.21390625 16.12171875 20.1953125 17.0859375 C20.14825673 19.39167015 20.08253713 21.69530945 20 24 C19.01 24 18.02 24 17 24 C16.95101562 22.72382813 16.90203125 21.44765625 16.8515625 20.1328125 C16.77653809 18.46351928 16.70099012 16.79424954 16.625 15.125 C16.5940625 14.28324219 16.563125 13.44148438 16.53125 12.57421875 C16.49257812 11.76855469 16.45390625 10.96289062 16.4140625 10.1328125 C16.36693115 9.01737061 16.36693115 9.01737061 16.31884766 7.87939453 C16.14580449 5.75989026 16.14580449 5.75989026 14 4 C11.04230823 3.49989476 11.04230823 3.49989476 8 4 C4.81801701 6.9105342 4.5903368 9.84951401 4.38085938 14.0390625 C4.35830078 14.76867187 4.33574219 15.49828125 4.3125 16.25 C4.27833984 16.99507813 4.24417969 17.74015625 4.20898438 18.5078125 C4.12685946 20.33802492 4.06174347 22.16898669 4 24 C2.68 24 1.36 24 0 24 C0 16.08 0 8.16 0 0 Z " fill="#232323" transform="translate(135,268)"/>
<path d="M0 0 C1.32 0 2.64 0 4 0 C4.97983928 2.60391539 5.95889794 5.20811968 6.9375 7.8125 C7.21529297 8.55048828 7.49308594 9.28847656 7.77929688 10.04882812 C8.18051758 11.11713867 8.18051758 11.11713867 8.58984375 12.20703125 C8.83597412 12.8616333 9.08210449 13.51623535 9.33569336 14.19067383 C9.92037033 15.78311815 10.46355559 17.39066676 11 19 C12.98 13.06 14.96 7.12 17 1 C18.65 0.67 20.3 0.34 22 0 C20.90263382 4.70863769 19.17414566 9.15923855 17.5 13.6875 C17.01853516 15.00717773 17.01853516 15.00717773 16.52734375 16.35351562 C16.21925781 17.18947266 15.91117188 18.02542969 15.59375 18.88671875 C15.17125977 20.03466919 15.17125977 20.03466919 14.74023438 21.20581055 C14 23 14 23 13 24 C11.33382885 24.04063832 9.66611905 24.042721 8 24 C6.66147204 20.37689672 5.33006282 16.75121856 4 13.125 C3.6184375 12.09246094 3.236875 11.05992187 2.84375 9.99609375 C2.4828125 9.00996094 2.121875 8.02382813 1.75 7.0078125 C1.41484375 6.09660645 1.0796875 5.18540039 0.734375 4.24658203 C0 2 0 2 0 0 Z " fill="#181818" transform="translate(218,268)"/>
<path d="M0 0 C0.99 0 1.98 0 3 0 C3 1.65 3 3.3 3 5 C5.31 5 7.62 5 10 5 C10 6.32 10 7.64 10 9 C7.69 9 5.38 9 3 9 C3.33 14.28 3.66 19.56 4 25 C5.98 25.33 7.96 25.66 10 26 C10 26.99 10 27.98 10 29 C2.57974765 29.48657392 2.57974765 29.48657392 0.25 27.53125 C-1.59883162 23.78736597 -1.32046926 20.36181877 -1.1875 16.25 C-1.17396484 15.45722656 -1.16042969 14.66445313 -1.14648438 13.84765625 C-1.11125223 11.89814436 -1.05744821 9.94898374 -1 8 C-1.99 8 -2.98 8 -4 8 C-4 7.34 -4 6.68 -4 6 C-3 5 -2 4 -1 3 C-0.67 2.01 -0.34 1.02 0 0 Z " fill="#171717" transform="translate(164,263)"/>
<path d="M0 0 C3.69230769 0.69230769 3.69230769 0.69230769 5 2 C5.25256877 5.97275815 5.18522451 9.95766175 5.1875 13.9375 C5.19974609 15.06091797 5.21199219 16.18433594 5.22460938 17.34179688 C5.22750977 18.94958008 5.22750977 18.94958008 5.23046875 20.58984375 C5.23457764 21.57847412 5.23868652 22.56710449 5.24291992 23.58569336 C5 26 5 26 3 28 C2.01 28 1.02 28 0 28 C-1.3241409 25.35171821 -1.12957042 23.33319888 -1.1328125 20.37109375 C-1.13410156 19.25412109 -1.13539063 18.13714844 -1.13671875 16.98632812 C-1.13285156 15.81521484 -1.12898437 14.64410156 -1.125 13.4375 C-1.12886719 12.26251953 -1.13273438 11.08753906 -1.13671875 9.87695312 C-1.13542969 8.76126953 -1.13414062 7.64558594 -1.1328125 6.49609375 C-1.13168457 5.46669678 -1.13055664 4.4372998 -1.12939453 3.37670898 C-1 1 -1 1 0 0 Z " fill="#1DB7FC" transform="translate(224,180)"/>
<path d="M0 0 C1.98 0.495 1.98 0.495 4 1 C4 9.58 4 18.16 4 27 C2.68 27.33 1.36 27.66 0 28 C-1.77449594 26.22550406 -1.13030072 23.64982739 -1.1328125 21.25 C-1.13410156 20.0846875 -1.13539063 18.919375 -1.13671875 17.71875 C-1.13285156 16.4915625 -1.12898438 15.264375 -1.125 14 C-1.12886719 12.7728125 -1.13273437 11.545625 -1.13671875 10.28125 C-1.13542969 9.1159375 -1.13414062 7.950625 -1.1328125 6.75 C-1.13168457 5.67234375 -1.13055664 4.5946875 -1.12939453 3.484375 C-1 1 -1 1 0 0 Z " fill="#0AB1FC" transform="translate(335,180)"/>
<path d="M0 0 C1.32 0.33 2.64 0.66 4 1 C4.33 1.66 4.66 2.32 5 3 C5.37125 2.505 5.7425 2.01 6.125 1.5 C8.74694393 -0.59755514 10.73842472 -0.21743835 14 0 C14 1.32 14 2.64 14 4 C11.36 4.33 8.72 4.66 6 5 C4.76240177 8.71279469 4.64391103 12.31306346 4.4375 16.1875 C4.39431641 16.93708984 4.35113281 17.68667969 4.30664062 18.45898438 C4.20077315 20.30578375 4.0999024 22.15286834 4 24 C2.68 24 1.36 24 0 24 C0 16.08 0 8.16 0 0 Z " fill="#181818" transform="translate(203,268)"/>
<path d="M0 0 C3.87132028 0.57352893 6.08172796 2.48704352 9 5 C8.49477778 9.37859255 5.82172778 11.81651224 3 15 C0 13 -3 11 -6 9 C-4.47291037 5.56404834 -2.40072955 2.88087546 0 0 Z " fill="#0B0B0B" transform="translate(320,277)"/>
<path d="M0 0 C7.21311475 -0.48087432 7.21311475 -0.48087432 10.25 1.375 C12.97962656 5.46943984 12.42471963 9.45193014 12.25 14.25 C12.23195312 15.18585938 12.21390625 16.12171875 12.1953125 17.0859375 C12.14825673 19.39167015 12.08253713 21.69530945 12 24 C11.01 24 10.02 24 9 24 C8.95101562 22.72382813 8.90203125 21.44765625 8.8515625 20.1328125 C8.77653809 18.46351928 8.70099012 16.79424954 8.625 15.125 C8.5940625 14.28324219 8.563125 13.44148438 8.53125 12.57421875 C8.49257812 11.76855469 8.45390625 10.96289062 8.4140625 10.1328125 C8.3826416 9.38918457 8.3512207 8.64555664 8.31884766 7.87939453 C8.14580449 5.75989026 8.14580449 5.75989026 6 4 C2.41656024 3.83322718 2.41656024 3.83322718 -1 4 C-0.67 2.68 -0.34 1.36 0 0 Z " fill="#070707" transform="translate(143,268)"/>
<path d="M0 0 C0.66 0.66 1.32 1.32 2 2 C1.625 5.625 1.625 5.625 1 9 C-5.42548263 10.33359073 -5.42548263 10.33359073 -7.9375 8.875 C-9.37604008 6.33639987 -9.50262362 4.87213496 -9 2 C-6.07557433 -1.24936186 -4.04996841 -1.38551551 0 0 Z " fill="#11B4FC" transform="translate(301,189)"/>
<path d="M0 0 C0.66 0.66 1.32 1.32 2 2 C1.625 5.625 1.625 5.625 1 9 C-5.42548263 10.33359073 -5.42548263 10.33359073 -7.9375 8.875 C-9.37604008 6.33639987 -9.50262362 4.87213496 -9 2 C-6.07557433 -1.24936186 -4.04996841 -1.38551551 0 0 Z " fill="#10B3FC" transform="translate(268,189)"/>
<path d="M0 0 C1.32 0 2.64 0 4 0 C4 7.92 4 15.84 4 24 C2.68 24 1.36 24 0 24 C0 16.08 0 8.16 0 0 Z " fill="#141414" transform="translate(361,268)"/>
<path d="M0 0 C1.32 0 2.64 0 4 0 C4 7.92 4 15.84 4 24 C2.68 24 1.36 24 0 24 C0 16.08 0 8.16 0 0 Z " fill="#1D1D1D" transform="translate(244,268)"/>
<path d="M0 0 C1.32 0 2.64 0 4 0 C4 7.92 4 15.84 4 24 C2.68 24 1.36 24 0 24 C0 16.08 0 8.16 0 0 Z " fill="#0E0E0E" transform="translate(124,268)"/>
<path d="M0 0 C1.21816406 0.03480469 1.21816406 0.03480469 2.4609375 0.0703125 C3.68683594 0.09738281 3.68683594 0.09738281 4.9375 0.125 C5.87722656 0.15980469 5.87722656 0.15980469 6.8359375 0.1953125 C6.0859375 5.9453125 6.0859375 5.9453125 3.8359375 8.1953125 C0.2734375 8.3828125 0.2734375 8.3828125 -3.1640625 8.1953125 C-4.1640625 7.1953125 -4.1640625 7.1953125 -4.3515625 4.7578125 C-4.11056691 1.46420613 -3.3744587 0.30455403 0 0 Z " fill="#F7F7F7" transform="translate(343.1640625,280.8046875)"/>
<path d="M0 0 C1.8125 1.25 1.8125 1.25 3 3 C3 4.32 3 5.64 3 7 C-0.96 7 -4.92 7 -9 7 C-8.67 5.35 -8.34 3.7 -8 2 C-4.76746204 -0.15502531 -3.74849077 -0.46856135 0 0 Z " fill="#E9E9E9" transform="translate(267,271)"/>
<path d="M0 0 C2.5625 0.3125 2.5625 0.3125 4.375 1.5625 C5.5625 3.3125 5.5625 3.3125 5.5625 7.3125 C1.6025 7.3125 -2.3575 7.3125 -6.4375 7.3125 C-3.70236486 0.47466216 -3.70236486 0.47466216 0 0 Z " fill="#EEEEEE" transform="translate(187.4375,270.6875)"/>
<path d="M0 0 C1.32 0 2.64 0 4 0 C4 1.32 4 2.64 4 4 C2.02 4 0.04 4 -2 4 C-1.34 2.68 -0.68 1.36 0 0 Z " fill="#242424" transform="translate(213,268)"/>
<path d="M0 0 C1.32 0 2.64 0 4 0 C4 1.32 4 2.64 4 4 C2.35 3.67 0.7 3.34 -1 3 C-0.67 2.01 -0.34 1.02 0 0 Z " fill="#212121" transform="translate(244,260)"/>
</svg>
